# xmcd
#
# Track frame offsets:
#	150
#	17475
#	29715
#	45130
#	59494
#	70975
#	80464
#	92104
#	104505
#	116963
#	128289
#	146409
#	159620
#	172805
#	186877
#
# Disc length: 2679 seconds
#
# Revision: 1
# Processed by: cddbd v1.5.2PL0 Copyright (c) Steve Scherf et al.
# Submitted via: audiograbber 1.83.01
#
DISCID=c40a750f
DTITLE=Various Artist - Country Hits - CD2
DYEAR=2018
DGENRE=Country
TTITLE0=George Hamilton V. - Midnight At A Red Light
TTITLE1=Lacy J. Dalton - Dream Baby, How Long Must I Dream
TTITLE2=Johnny Cash - The Night They Drove Old Dixie Down
TTITLE3=The Bellamy Brothers - If I Said You Had A Beautiful Body ...
TTITLE4=Dolly Parton - Letter To Heaven
TTITLE5=Willie Nelson - One Step Beyond
TTITLE6=Kenny Rogers - Me And Bobby McGee
TTITLE7=Porter Wagoner - Green, Green Grass Of Home
TTITLE8=Moe Bandy - Good Old Boy
TTITLE9=Chip Taylor 6 Carrie Rodriguez - My Bucket's Got A Hole In It
TTITLE10=Johnny Paycheck - Billy Jack Washburn
TTITLE11=Ferlin Husky - Room Full Of Roses
TTITLE12=T.G. Sheppard - Devil In The Bottle
TTITLE13=Moe Bandy - I Cheated Me Right Out Of You
TTITLE14=Roy Clark - Tips Of My Fingers
EXTD=
EXTT0=
EXTT1=
EXTT2=
EXTT3=
EXTT4=
EXTT5=
EXTT6=
EXTT7=
EXTT8=
EXTT9=
EXTT10=
EXTT11=
EXTT12=
EXTT13=
EXTT14=
PLAYORDER=
